# xmcd
#
# Track frame offsets: 
#        150
#        18820
#        34394
#        57259
#        77008
#        94496
#        108801
#        129638
#        152645
#        171379
#
# Disc length: 2488 seconds
#
# Revision: 3
# Processed by: cddbd v1.5.2PL0 Copyright (c) Steve Scherf et al.
# Submitted via: ExactAudioCopy v1.0b3
#
DISCID=7b09b60a
DTITLE=Roy Roberts - Burnin' Love
DYEAR=2001
DGENRE=Blues
TTITLE0=Burnin Love
TTITLE1=Couldn't See The Tears For The Rain
TTITLE2=The Next Time
TTITLE3=Leave My Woman Alone
TTITLE4=Dirty Old Man
TTITLE5=Can't Have It Your Way
TTITLE6=I've Got Troubles
TTITLE7=Let's Straighten It Out
TTITLE8=I'm In Love
TTITLE9=That's Alright
EXTD=
EXTT0=
EXTT1=
EXTT2=
EXTT3=
EXTT4=
EXTT5=
EXTT6=
EXTT7=
EXTT8=
EXTT9=
PLAYORDER=
